PathFileType	4	(X/Y/Z)	5_2_41_p0_0-214.trc
DataRate	CameraRate	NumFrames	NumMarkers	Units	OrigDataRate	OrigDataStartFrame	OrigNumFrames
59.0	59.0	4	27	m	59.0	0	215
Frame#	Time	RHip			RKnee			RAnkle			RBigToe			RSmallToe			RHeel			LHip			LKnee			LAnkle			LBigToe			LSmallToe			LHeel			Neck			Head			Nose			RShoulder			RElbow			RWrist			RThumb			RIndex			RPinky			LShoulder			LElbow			LWrist			LThumb			LIndex			LPinky			
		X1	Y1	Z1	X2	Y2	Z2	X3	Y3	Z3	X4	Y4	Z4	X5	Y5	Z5	X6	Y6	Z6	X7	Y7	Z7	X8	Y8	Z8	X9	Y9	Z9	X10	Y10	Z10	X11	Y11	Z11	X12	Y12	Z12	X13	Y13	Z13	X14	Y14	Z14	X15	Y15	Z15	X16	Y16	Z16	X17	Y17	Z17	X18	Y18	Z18	X19	Y19	Z19	X20	Y20	Z20	X21	Y21	Z21	X22	Y22	Z22	X23	Y23	Z23	X24	Y24	Z24	X25	Y25	Z25	X26	Y26	Z26	X27	Y27	Z27	
0	0.0	0.3668715659718349	0.550074575406724	0.8345139004573575	0.39366211262532425	0.6399839227378995	1.2637675962090584	0.3779420146295034	0.79552634940579	1.6779445867997345	0.3823396063575973	0.5751514711444116	1.6772833319764981	0.43115660721539306	0.6460566525628181	1.6907536841030997	0.35879603124900994	0.8374834587880605	1.7260798218256015	0.17085554840816436	0.5186465029778795	0.8504815850016616	0.18991986828878868	0.6155202954198838	1.2903701031795416	0.19647824427895338	0.7481077466513189	1.6876196695914942	0.20593535734539506	0.5329683336060094	1.6622024930151176	0.16357519162641257	0.5849804996919812	1.6683285455755623	0.18688360651365793	0.8945909907625945	1.7801154867884497	0.2240683884549466	0.45392689068084185	0.3025474318928733	0.2173431289886782	0.4071563773392431	0.04699810013947081	0.2602771920125745	0.34399627018664736	0.19116993735664212	0.39082543699584565	0.5273489190939646	0.3665344113033502	0.4447019336057908	0.5350162695597935	0.6178777969086723	0.3261911468506799	0.4035577646074652	0.7354696526555149	0.26471566492613197	0.33816794809519285	0.7968131895960094	0.25883735559305626	0.3402245487072122	0.804261839140317	0.2745250601124458	0.3584370744810489	0.8199633016575357	0.0943981781086166	0.4446001535758947	0.3819827904004419	0.049926266425576044	0.481111587186719	0.6406759578254422	0.21783345270603194	0.38699748397633366	0.7383767148566217	0.3094594593239531	0.37121683122143984	0.7886074241341037	0.305235437043012	0.3832124156097171	0.7959550049403677	0.28150758371868095	0.34798259965501716	0.8139216480187588
1	0.01694915254237288	0.366213485550921	0.550969234185629	0.8305510911751175	0.39415642335412593	0.6435010038415574	1.2735408048900567	0.37333654308644865	0.8157564452790775	1.6912789082363677	0.3792385454518786	0.5595258093335089	1.6688661284482842	0.42646989150668096	0.620488533685132	1.6814705358351947	0.36015836696329634	0.8414238401249176	1.7316738998562258	0.16607817390294194	0.5177035021146768	0.8469615702361308	0.19142325835171184	0.6296987915582558	1.2937421756998921	0.19822298065725188	0.7638222562719769	1.6934664240923842	0.2006469939614949	0.5447104030707418	1.6727462659417167	0.16054073849171338	0.5942030190435064	1.6732942912772752	0.1882087775752534	0.9014854850468847	1.7860756335666625	0.22408242506680595	0.45387854163180397	0.3026249313755289	0.21758987335508115	0.407198135061241	0.04713450978352569	0.2604629305825218	0.3438401482941044	0.1911786025862694	0.38679431714060625	0.5268238248523041	0.37008601391512924	0.4440726984235424	0.5330121237315737	0.6138612361081268	0.32070045237780637	0.41728926191475013	0.7411758786231919	0.2649590296867489	0.3387391489012058	0.796820450895962	0.25822255691054047	0.3524827787772013	0.8062376280334309	0.2704420485111314	0.35700188232223795	0.820997388065384	0.09431222126747672	0.44514161183889867	0.3849807830466665	0.05006223513744995	0.4811933610743688	0.6408250573104631	0.21835456546160575	0.38936831580658793	0.7424340953679884	0.3040556649870182	0.384455768114664	0.7876909843596221	0.30671778744461903	0.39628797258041076	0.797774771024244	0.2838460371689992	0.35989095630496865	0.8149341934105777
2	0.03389830508474576	0.366193740612101	0.5509668823628225	0.8305222245421463	0.3931754371230072	0.6409922434799687	1.2685821073148977	0.3722680221705971	0.8126947797577494	1.6856138176858075	0.38210910584359886	0.5746333219413006	1.6776138618051082	0.4287205625533137	0.6329364778659672	1.6860510514625906	0.3602511901210099	0.8416069624044742	1.731679375008928	0.1660374839196549	0.5173423107804407	0.8469704218415974	0.1921962869633796	0.6288589167602249	1.2976625642072976	0.19819895273126442	0.7636084230924631	1.6932108548841511	0.20091622676466167	0.5448452122315154	1.6728316026497294	0.16066082247258925	0.5943071838456243	1.673362545320641	0.18882377622751453	0.8987381581471874	1.7791726305484175	0.22406378644048616	0.45392733216691095	0.30257137383304106	0.21753048622031135	0.4077470751477399	0.04710993329293059	0.2604418549466053	0.3431458680725686	0.18769150175109323	0.38669680631291026	0.5273528982788019	0.37013135807336767	0.4439950437706309	0.5330823080401038	0.6136987139659562	0.3168431318918229	0.41542552418342116	0.738188796047009	0.27105996850892483	0.351822081157968	0.7975955415214768	0.26357917649716944	0.34148262057549994	0.8039667613108412	0.2702947743473059	0.3571920474104319	0.8207355867195536	0.09038321018295352	0.4427412902614424	0.38544355156906274	0.05067063140710752	0.4815586024261616	0.6444256888891994	0.21836017369328498	0.3893265895745335	0.7424017293712118	0.30414570551311276	0.38451273625458676	0.7875861047771823	0.3053704341870355	0.38374676938081376	0.7963425579572097	0.28393241428446314	0.3605548104699661	0.8151939087215475
3	0.05084745762711865	0.3661340765121894	0.5510928470406332	0.8305193170834125	0.39469413789606994	0.6383586616267943	1.2682295906111758	0.3733572444797698	0.815775873034787	1.6912600010717778	0.37918178612023334	0.5596753937622705	1.668986022771099	0.42161677346934623	0.6367278557767436	1.6890265314674213	0.3601238662414752	0.8414783805226523	1.7316936329380406	0.1659381220269548	0.5176061981301858	0.8469515496860207	0.19216434250642128	0.6288633629441078	1.2977142880214951	0.19825814463408298	0.7637182004471716	1.6933200084411797	0.2069530797147713	0.5298784045769951	1.6659033369033809	0.1616501035515388	0.592538904544336	1.6774197686656973	0.18797887419083498	0.900831902275154	1.785477903246612	0.2241320183332231	0.4538018915034587	0.30266708327621644	0.21747010457804297	0.40809497870981376	0.04710088840731635	0.26124310468535683	0.34429259305341847	0.19464202196245092	0.3907674824186212	0.5280726502136778	0.3697426284321086	0.44647074836346334	0.5450454018296114	0.6141993154086814	0.3168022944016547	0.41559395114214787	0.7381890768237042	0.2749989616877482	0.3533593771683383	0.7973560750784785	0.2637661436142802	0.3414914768787037	0.8041426524840577	0.2702070088948603	0.3573494413782866	0.8207406132945717	0.09039101165061415	0.44247381773881583	0.38561275890338986	0.05011145235234512	0.48217006275350904	0.6407765811756431	0.21829380909213286	0.3897269040913151	0.7425515271268164	0.30407625248937115	0.38518071159347317	0.7872450748294045	0.30680092014850757	0.3965290231923206	0.7977219898090783	0.28830973229246387	0.3629523800438447	0.8155039043987921
